<?xml version="1.0" encoding="UTF-8"?>
<!--Generator: Apple Native CoreSVG 149-->
<!DOCTYPE svg
PUBLIC "-//W3C//DTD SVG 1.1//EN"
       "http://www.w3.org/Graphics/SVG/1.1/DTD/svg11.dtd">
<svg version="1.1" xmlns="http://www.w3.org/2000/svg" xmlns:xlink="http://www.w3.org/1999/xlink" width="3300" height="2200">
 <!--glyph: "uni10039F.medium", point size: 100.0, font version: "17.0d9e1", template writer version: "59"-->
 <g id="Notes">
  <rect height="2200" id="artboard" style="fill:white;opacity:1" width="3300" x="0" y="0"/>
  <line style="fill:none;stroke:black;opacity:1;stroke-width:0.5;" x1="263" x2="3036" y1="292" y2="292"/>
  <text style="stroke:none;fill:black;font-family:sans-serif;font-size:13;font-weight:bold;" transform="matrix(1 0 0 1 263 322)">Weight/Scale Variations</text>
  <text style="stroke:none;fill:black;font-family:sans-serif;font-size:13;text-anchor:middle;" transform="matrix(1 0 0 1 559.711 322)">Ultralight</text>
  <text style="stroke:none;fill:black;font-family:sans-serif;font-size:13;text-anchor:middle;" transform="matrix(1 0 0 1 856.422 322)">Thin</text>
  <text style="stroke:none;fill:black;font-family:sans-serif;font-size:13;text-anchor:middle;" transform="matrix(1 0 0 1 1153.13 322)">Light</text>
  <text style="stroke:none;fill:black;font-family:sans-serif;font-size:13;text-anchor:middle;" transform="matrix(1 0 0 1 1449.84 322)">Regular</text>
  <text style="stroke:none;fill:black;font-family:sans-serif;font-size:13;text-anchor:middle;" transform="matrix(1 0 0 1 1746.56 322)">Medium</text>
  <text style="stroke:none;fill:black;font-family:sans-serif;font-size:13;text-anchor:middle;" transform="matrix(1 0 0 1 2043.27 322)">Semibold</text>
  <text style="stroke:none;fill:black;font-family:sans-serif;font-size:13;text-anchor:middle;" transform="matrix(1 0 0 1 2339.98 322)">Bold</text>
  <text style="stroke:none;fill:black;font-family:sans-serif;font-size:13;text-anchor:middle;" transform="matrix(1 0 0 1 2636.69 322)">Heavy</text>
  <text style="stroke:none;fill:black;font-family:sans-serif;font-size:13;text-anchor:middle;" transform="matrix(1 0 0 1 2933.4 322)">Black</text>
  <line style="fill:none;stroke:black;opacity:1;stroke-width:0.5;" x1="263" x2="3036" y1="1903" y2="1903"/>
  <g transform="matrix(1 0 0 1 263 1933)">
   <path d="M9.24805 0.830078Q10.8691 0.830078 12.2949 0.214844Q13.7207-0.400391 14.8096-1.49414Q15.8984-2.58789 16.5186-4.01367Q17.1387-5.43945 17.1387-7.05078Q17.1387-8.66211 16.5186-10.0879Q15.8984-11.5137 14.8047-12.6074Q13.7109-13.7012 12.2852-14.3164Q10.8594-14.9316 9.23828-14.9316Q7.62695-14.9316 6.20117-14.3164Q4.77539-13.7012 3.69141-12.6074Q2.60742-11.5137 1.9873-10.0879Q1.36719-8.66211 1.36719-7.05078Q1.36719-5.43945 1.9873-4.01367Q2.60742-2.58789 3.69629-1.49414Q4.78516-0.400391 6.21094 0.214844Q7.63672 0.830078 9.24805 0.830078ZM9.24805-0.654297Q7.91992-0.654297 6.7627-1.14746Q5.60547-1.64062 4.73145-2.51953Q3.85742-3.39844 3.36426-4.56055Q2.87109-5.72266 2.87109-7.05078Q2.87109-8.37891 3.35938-9.54102Q3.84766-10.7031 4.72168-11.582Q5.5957-12.4609 6.75293-12.9541Q7.91016-13.4473 9.23828-13.4473Q10.5762-13.4473 11.7334-12.9541Q12.8906-12.4609 13.7695-11.582Q14.6484-10.7031 15.1465-9.54102Q15.6445-8.37891 15.6445-7.05078Q15.6445-5.72266 15.1514-4.56055Q14.6582-3.39844 13.7842-2.51953Q12.9102-1.64062 11.748-1.14746Q10.5859-0.654297 9.24805-0.654297ZM5.83984-7.04102Q5.83984-6.71875 6.04492-6.51855Q6.25-6.31836 6.5918-6.31836L8.50586-6.31836L8.50586-4.39453Q8.50586-4.0625 8.70605-3.85742Q8.90625-3.65234 9.22852-3.65234Q9.56055-3.65234 9.76562-3.85742Q9.9707-4.0625 9.9707-4.39453L9.9707-6.31836L11.8945-6.31836Q12.2266-6.31836 12.4316-6.51855Q12.6367-6.71875 12.6367-7.04102Q12.6367-7.37305 12.4316-7.57812Q12.2266-7.7832 11.8945-7.7832L9.9707-7.7832L9.9707-9.69727Q9.9707-10.0391 9.76562-10.2441Q9.56055-10.4492 9.22852-10.4492Q8.90625-10.4492 8.70605-10.2441Q8.50586-10.0391 8.50586-9.69727L8.50586-7.7832L6.5918-7.7832Q6.25-7.7832 6.04492-7.57812Q5.83984-7.37305 5.83984-7.04102Z"/>
  </g>
  <g transform="matrix(1 0 0 1 281.867 1933)">
   <path d="M11.709 2.91016Q13.75 2.91016 15.5518 2.12891Q17.3535 1.34766 18.7305-0.0292969Q20.1074-1.40625 20.8887-3.20801Q21.6699-5.00977 21.6699-7.05078Q21.6699-9.0918 20.8887-10.8936Q20.1074-12.6953 18.7305-14.0723Q17.3535-15.4492 15.5469-16.2305Q13.7402-17.0117 11.6992-17.0117Q9.6582-17.0117 7.85645-16.2305Q6.05469-15.4492 4.68262-14.0723Q3.31055-12.6953 2.5293-10.8936Q1.74805-9.0918 1.74805-7.05078Q1.74805-5.00977 2.5293-3.20801Q3.31055-1.40625 4.6875-0.0292969Q6.06445 1.34766 7.86621 2.12891Q9.66797 2.91016 11.709 2.91016ZM11.709 1.25Q9.98047 1.25 8.47656 0.605469Q6.97266-0.0390625 5.83496-1.17676Q4.69727-2.31445 4.05762-3.81836Q3.41797-5.32227 3.41797-7.05078Q3.41797-8.7793 4.05762-10.2832Q4.69727-11.7871 5.83008-12.9297Q6.96289-14.0723 8.4668-14.7119Q9.9707-15.3516 11.6992-15.3516Q13.4277-15.3516 14.9316-14.7119Q16.4355-14.0723 17.5781-12.9297Q18.7207-11.7871 19.3652-10.2832Q20.0098-8.7793 20.0098-7.05078Q20.0098-5.32227 19.3701-3.81836Q18.7305-2.31445 17.5928-1.17676Q16.4551-0.0390625 14.9463 0.605469Q13.4375 1.25 11.709 1.25ZM7.39258-7.04102Q7.39258-6.68945 7.62695-6.46484Q7.86133-6.24023 8.23242-6.24023L10.8789-6.24023L10.8789-3.57422Q10.8789-3.21289 11.1035-2.9834Q11.3281-2.75391 11.6797-2.75391Q12.0508-2.75391 12.2852-2.9834Q12.5195-3.21289 12.5195-3.57422L12.5195-6.24023L15.1758-6.24023Q15.5371-6.24023 15.7715-6.46484Q16.0059-6.68945 16.0059-7.04102Q16.0059-7.41211 15.7715-7.6416Q15.5371-7.87109 15.1758-7.87109L12.5195-7.87109L12.5195-10.5176Q12.5195-10.8984 12.2852-11.1279Q12.0508-11.3574 11.6797-11.3574Q11.3281-11.3574 11.1035-11.1279Q10.8789-10.8984 10.8789-10.5176L10.8789-7.87109L8.23242-7.87109Q7.85156-7.87109 7.62207-7.6416Q7.39258-7.41211 7.39258-7.04102Z"/>
  </g>
  <g transform="matrix(1 0 0 1 305.646 1933)">
   <path d="M14.9707 5.66406Q17.0605 5.66406 18.96 5.01465Q20.8594 4.36523 22.4512 3.19336Q24.043 2.02148 25.2197 0.429688Q26.3965-1.16211 27.0459-3.06641Q27.6953-4.9707 27.6953-7.05078Q27.6953-9.14062 27.0459-11.04Q26.3965-12.9395 25.2197-14.5312Q24.043-16.123 22.4512-17.2998Q20.8594-18.4766 18.9551-19.126Q17.0508-19.7754 14.9609-19.7754Q12.8711-19.7754 10.9717-19.126Q9.07227-18.4766 7.48535-17.2998Q5.89844-16.123 4.72168-14.5312Q3.54492-12.9395 2.90039-11.04Q2.25586-9.14062 2.25586-7.05078Q2.25586-4.9707 2.90527-3.06641Q3.55469-1.16211 4.72656 0.429688Q5.89844 2.02148 7.49023 3.19336Q9.08203 4.36523 10.9814 5.01465Q12.8809 5.66406 14.9707 5.66406ZM14.9707 3.84766Q13.1641 3.84766 11.5283 3.2959Q9.89258 2.74414 8.53516 1.74805Q7.17773 0.751953 6.17676-0.610352Q5.17578-1.97266 4.62891-3.6084Q4.08203-5.24414 4.08203-7.05078Q4.08203-8.86719 4.62891-10.5029Q5.17578-12.1387 6.17188-13.501Q7.16797-14.8633 8.52539-15.8594Q9.88281-16.8555 11.5186-17.4023Q13.1543-17.9492 14.9609-17.9492Q16.7773-17.9492 18.4131-17.4023Q20.0488-16.8555 21.4111-15.8594Q22.7734-14.8633 23.7695-13.501Q24.7656-12.1387 25.3174-10.5029Q25.8691-8.86719 25.8691-7.05078Q25.8789-5.24414 25.332-3.6084Q24.7852-1.97266 23.7842-0.610352Q22.7832 0.751953 21.4209 1.74805Q20.0586 2.74414 18.4229 3.2959Q16.7871 3.84766 14.9707 3.84766ZM9.45312-7.04102Q9.45312-6.66016 9.71191-6.41113Q9.9707-6.16211 10.3711-6.16211L14.0625-6.16211L14.0625-2.46094Q14.0625-2.06055 14.3115-1.80664Q14.5605-1.55273 14.9414-1.55273Q15.3516-1.55273 15.6055-1.80664Q15.8594-2.06055 15.8594-2.46094L15.8594-6.16211L19.5605-6.16211Q19.9609-6.16211 20.2148-6.41113Q20.4688-6.66016 20.4688-7.04102Q20.4688-7.45117 20.2148-7.70508Q19.9609-7.95898 19.5605-7.95898L15.8594-7.95898L15.8594-11.6504Q15.8594-12.0605 15.6055-12.3145Q15.3516-12.5684 14.9414-12.5684Q14.5605-12.5684 14.3115-12.3096Q14.0625-12.0508 14.0625-11.6504L14.0625-7.95898L10.3711-7.95898Q9.96094-7.95898 9.70703-7.70508Q9.45312-7.45117 9.45312-7.04102Z"/>
  </g>
  <text style="stroke:none;fill:black;font-family:sans-serif;font-size:13;font-weight:bold;" transform="matrix(1 0 0 1 263 1953)">Design Variations</text>
  <text style="stroke:none;fill:black;font-family:sans-serif;font-size:13;" transform="matrix(1 0 0 1 263 1971)">Symbols are supported in up to nine weights and three scales.</text>
  <text style="stroke:none;fill:black;font-family:sans-serif;font-size:13;" transform="matrix(1 0 0 1 263 1989)">For optimal layout with text and other symbols, vertically align</text>
  <text style="stroke:none;fill:black;font-family:sans-serif;font-size:13;" transform="matrix(1 0 0 1 263 2007)">symbols with the adjacent text.</text>
  <line style="fill:none;stroke:#00AEEF;stroke-width:0.5;opacity:1.0;" x1="776" x2="776" y1="1919" y2="1933"/>
  <g transform="matrix(1 0 0 1 776 1933)">
   <path d="M3.31055 0.15625Q3.70117 0.15625 3.91602-0.00976562Q4.13086-0.175781 4.26758-0.585938L5.52734-4.0332L11.2891-4.0332L12.5488-0.585938Q12.6855-0.175781 12.9004-0.00976562Q13.1152 0.15625 13.4961 0.15625Q13.8867 0.15625 14.1162-0.0585938Q14.3457-0.273438 14.3457-0.644531Q14.3457-0.869141 14.2383-1.17188L9.6582-13.3691Q9.48242-13.8184 9.17969-14.043Q8.87695-14.2676 8.4082-14.2676Q7.5-14.2676 7.17773-13.3789L2.59766-1.16211Q2.49023-0.859375 2.49023-0.634766Q2.49023-0.263672 2.70996-0.0537109Q2.92969 0.15625 3.31055 0.15625ZM6.00586-5.51758L8.37891-12.0898L8.42773-12.0898L10.8008-5.51758Z"/>
  </g>
  <line style="fill:none;stroke:#00AEEF;stroke-width:0.5;opacity:1.0;" x1="793.197" x2="793.197" y1="1919" y2="1933"/>
  <text style="stroke:none;fill:black;font-family:sans-serif;font-size:13;font-weight:bold;" transform="matrix(1 0 0 1 776 1953)">Margins</text>
  <text style="stroke:none;fill:black;font-family:sans-serif;font-size:13;" transform="matrix(1 0 0 1 776 1971)">Leading and trailing margins on the left and right side of each symbol</text>
  <text style="stroke:none;fill:black;font-family:sans-serif;font-size:13;" transform="matrix(1 0 0 1 776 1989)">can be adjusted by modifying the x-location of the margin guidelines.</text>
  <text style="stroke:none;fill:black;font-family:sans-serif;font-size:13;" transform="matrix(1 0 0 1 776 2007)">Modifications are automatically applied proportionally to all</text>
  <text style="stroke:none;fill:black;font-family:sans-serif;font-size:13;" transform="matrix(1 0 0 1 776 2025)">scales and weights.</text>
  <g transform="matrix(1 0 0 1 1289 1933)">
   <path d="M2.8418 1.86523L4.54102 3.57422Q5.18555 4.22852 5.90332 4.17969Q6.62109 4.13086 7.31445 3.35938L18.0078-8.42773L17.041-9.4043L6.42578 2.27539Q6.16211 2.57812 5.89355 2.61719Q5.625 2.65625 5.27344 2.30469L4.10156 1.14258Q3.75 0.791016 3.79395 0.522461Q3.83789 0.253906 4.14062-0.0195312L15.6152-10.8203L14.6387-11.7871L3.04688-0.898438Q2.30469-0.214844 2.25098 0.498047Q2.19727 1.21094 2.8418 1.86523ZM9.25781-16.3281Q8.94531-16.0254 8.90625-15.6348Q8.86719-15.2441 9.04297-14.9512Q9.21875-14.6777 9.55566-14.541Q9.89258-14.4043 10.3809-14.5215Q11.4746-14.7754 12.5977-14.7314Q13.7207-14.6875 14.7949-13.9844L14.209-12.5293Q13.9551-11.9043 14.0674-11.4404Q14.1797-10.9766 14.5801-10.5664L16.875-8.25195Q17.2363-7.88086 17.5781-7.82227Q17.9199-7.76367 18.3398-7.8418L19.4043-8.03711L20.0684-7.36328L20.0293-6.80664Q20-6.43555 20.1221-6.12305Q20.2441-5.81055 20.6055-5.44922L21.3672-4.70703Q21.7285-4.3457 22.1533-4.33105Q22.5781-4.31641 22.9297-4.66797L25.8398-7.58789Q26.1914-7.93945 26.1816-8.35449Q26.1719-8.76953 25.8105-9.13086L25.0391-9.89258Q24.6875-10.2539 24.3799-10.3857Q24.0723-10.5176 23.7109-10.4883L23.1348-10.4395L22.4902-11.0742L22.7344-12.1973Q22.832-12.6172 22.6953-12.9834Q22.5586-13.3496 22.1191-13.7891L19.9219-15.9766Q18.6719-17.2168 17.2607-17.8369Q15.8496-18.457 14.4189-18.4814Q12.9883-18.5059 11.665-17.959Q10.3418-17.4121 9.25781-16.3281ZM10.752-15.957Q11.6602-16.6211 12.7002-16.9043Q13.7402-17.1875 14.8047-17.085Q15.8691-16.9824 16.8701-16.5137Q17.8711-16.0449 18.7012-15.2051L21.1328-12.793Q21.3086-12.6172 21.3525-12.4512Q21.3965-12.2852 21.3379-12.0312L21.0156-10.5469L22.5195-9.0625L23.5059-9.12109Q23.6914-9.13086 23.7891-9.09668Q23.8867-9.0625 24.0332-8.91602L24.6094-8.33984L22.168-5.89844L21.5918-6.47461Q21.4453-6.62109 21.4062-6.71875Q21.3672-6.81641 21.377-7.01172L21.4453-7.98828L19.9512-9.47266L18.4277-9.21875Q18.1836-9.16992 18.042-9.2041Q17.9004-9.23828 17.7148-9.41406L15.7129-11.416Q15.5176-11.5918 15.4932-11.7529Q15.4688-11.9141 15.5859-12.1875L16.4648-14.2773Q15.293-15.3711 13.8281-15.791Q12.3633-16.2109 10.8398-15.7617Q10.7227-15.7324 10.6885-15.8057Q10.6543-15.8789 10.752-15.957Z"/>
  </g>
  <text style="stroke:none;fill:black;font-family:sans-serif;font-size:13;font-weight:bold;" transform="matrix(1 0 0 1 1289 1953)">Exporting</text>
  <text style="stroke:none;fill:black;font-family:sans-serif;font-size:13;" transform="matrix(1 0 0 1 1289 1971)">Symbols should be outlined when exporting to ensure the</text>
  <text style="stroke:none;fill:black;font-family:sans-serif;font-size:13;" transform="matrix(1 0 0 1 1289 1989)">design is preserved when submitting to Xcode.</text>
  <text id="template-version" style="stroke:none;fill:black;font-family:sans-serif;font-size:13;text-anchor:end;" transform="matrix(1 0 0 1 3036 1933)">Template v.2.0</text>
  <text style="stroke:none;fill:black;font-family:sans-serif;font-size:13;text-anchor:end;" transform="matrix(1 0 0 1 3036 1951)">Requires Xcode 13 or greater</text>
  <text id="descriptive-name" style="stroke:none;fill:black;font-family:sans-serif;font-size:13;text-anchor:end;" transform="matrix(1 0 0 1 3036 1969)">Generated from house.fill</text>
  <text style="stroke:none;fill:black;font-family:sans-serif;font-size:13;text-anchor:end;" transform="matrix(1 0 0 1 3036 1987)">Typeset at 100 points</text>
  <text style="stroke:none;fill:black;font-family:sans-serif;font-size:13;" transform="matrix(1 0 0 1 263 726)">Small</text>
  <text style="stroke:none;fill:black;font-family:sans-serif;font-size:13;" transform="matrix(1 0 0 1 263 1156)">Medium</text>
  <text style="stroke:none;fill:black;font-family:sans-serif;font-size:13;" transform="matrix(1 0 0 1 263 1586)">Large</text>
 </g>
 <g id="Guides">
  <g id="H-reference" style="fill:#27AAE1;stroke:none;" transform="matrix(1 0 0 1 339 696)">
   <path d="M0.976562 0L3.66211 0L29.3457-67.1387L30.0293-67.1387L30.0293-70.459L28.125-70.459ZM11.6699-24.4629L46.9727-24.4629L46.2402-26.709L12.4512-26.709ZM55.127 0L57.7637 0L30.6152-70.459L29.4434-70.459L29.4434-67.1387Z"/>
  </g>
  <line id="Baseline-S" style="fill:none;stroke:#27AAE1;opacity:1;stroke-width:0.5;" x1="263" x2="3036" y1="696" y2="696"/>
  <line id="Capline-S" style="fill:none;stroke:#27AAE1;opacity:1;stroke-width:0.5;" x1="263" x2="3036" y1="625.541" y2="625.541"/>
  <g id="H-reference" style="fill:#27AAE1;stroke:none;" transform="matrix(1 0 0 1 339 1126)">
   <path d="M0.976562 0L3.66211 0L29.3457-67.1387L30.0293-67.1387L30.0293-70.459L28.125-70.459ZM11.6699-24.4629L46.9727-24.4629L46.2402-26.709L12.4512-26.709ZM55.127 0L57.7637 0L30.6152-70.459L29.4434-70.459L29.4434-67.1387Z"/>
  </g>
  <line id="Baseline-M" style="fill:none;stroke:#27AAE1;opacity:1;stroke-width:0.5;" x1="263" x2="3036" y1="1126" y2="1126"/>
  <line id="Capline-M" style="fill:none;stroke:#27AAE1;opacity:1;stroke-width:0.5;" x1="263" x2="3036" y1="1055.54" y2="1055.54"/>
  <g id="H-reference" style="fill:#27AAE1;stroke:none;" transform="matrix(1 0 0 1 339 1556)">
   <path d="M0.976562 0L3.66211 0L29.3457-67.1387L30.0293-67.1387L30.0293-70.459L28.125-70.459ZM11.6699-24.4629L46.9727-24.4629L46.2402-26.709L12.4512-26.709ZM55.127 0L57.7637 0L30.6152-70.459L29.4434-70.459L29.4434-67.1387Z"/>
  </g>
  <line id="Baseline-L" style="fill:none;stroke:#27AAE1;opacity:1;stroke-width:0.5;" x1="263" x2="3036" y1="1556" y2="1556"/>
  <line id="Capline-L" style="fill:none;stroke:#27AAE1;opacity:1;stroke-width:0.5;" x1="263" x2="3036" y1="1485.54" y2="1485.54"/>
  <line id="left-margin" style="fill:none;stroke:#00AEEF;stroke-width:0.5;opacity:1.0;" x1="1379.12" x2="1379.12" y1="1030.79" y2="1150.12"/>
  <line id="right-margin" style="fill:none;stroke:#00AEEF;stroke-width:0.5;opacity:1.0;" x1="1520.57" x2="1520.57" y1="1030.79" y2="1150.12"/>
 </g>
 <g id="Symbols">
  <g id="Black-L" transform="matrix(1 0 0 1 2834.28 1556)">
   <path d="M116.602 20.0684L81.6406 20.0684L81.6406-16.3574Q81.6406-18.7012 83.0811-20.1172Q84.5215-21.5332 86.8652-21.5332L111.426-21.5332Q113.77-21.5332 115.186-20.1172Q116.602-18.7012 116.602-16.3574ZM39.1602 20.6543Q39.1602 28.2715 44.0674 32.8369Q48.9746 37.4023 57.1777 37.4023L141.016 37.4023Q149.219 37.4023 154.126 32.8369Q159.033 28.2715 159.033 20.6543L159.033-20.2637L103.369-66.9922Q101.416-68.7012 99.1455-68.6768Q96.875-68.6523 94.9707-66.9922L39.1602-20.2637ZM16.0645-37.207Q16.0645-32.959 18.8232-30.2734Q21.582-27.5879 26.2207-27.5879Q28.2227-27.5879 30.249-28.4668Q32.2754-29.3457 34.0332-30.8594L95.0195-81.9824Q97.0215-83.6914 99.1699-83.6914Q101.318-83.6914 103.369-81.9824L164.258-30.8594Q166.016-29.3457 168.042-28.4668Q170.068-27.5879 172.07-27.5879Q176.562-27.5879 179.37-30.2002Q182.178-32.8125 182.178-37.1582Q182.178-41.9434 178.125-45.3613L112.402-100.586Q106.445-105.566 99.1943-105.566Q91.9434-105.566 86.0352-100.586L20.166-45.3125Q16.0645-41.7969 16.0645-37.207ZM135.01-75.3906L159.961-54.5898L159.961-89.4531Q159.961-91.8457 158.569-93.2373Q157.178-94.6289 154.834-94.6289L140.234-94.6289Q137.891-94.6289 136.45-93.2373Q135.01-91.8457 135.01-89.4531Z"/>
  </g>
  <g id="Heavy-L" transform="matrix(1 0 0 1 2539.81 1556)">
   <path d="M114.014 20.5078L79.7363 20.5078L79.7363-17.2852Q79.7363-19.5801 81.1279-20.9473Q82.5195-22.3145 84.8145-22.3145L109.033-22.3145Q111.279-22.3145 112.646-20.9473Q114.014-19.5801 114.014-17.2852ZM38.1348 19.873Q38.1348 27.1484 42.7002 31.4697Q47.2656 35.791 55.0293 35.791L138.721 35.791Q146.484 35.791 151.074 31.4697Q155.664 27.1484 155.664 19.873L155.664-23.7793L101.074-69.5801Q99.1211-71.2891 96.8994-71.2646Q94.6777-71.2402 92.8223-69.5801L38.1348-23.7793ZM16.0645-37.7441Q16.0645-34.1309 18.457-31.7627Q20.8496-29.3945 24.9023-29.3945Q26.709-29.3945 28.4668-30.2002Q30.2246-31.0059 31.7871-32.3242L93.2129-83.7891Q95.0195-85.3516 96.9482-85.3516Q98.877-85.3516 100.732-83.7891L162.061-32.3242Q163.574-31.0059 165.356-30.2002Q167.139-29.3945 168.896-29.3945Q172.803-29.3945 175.244-31.6406Q177.686-33.8867 177.686-37.6953Q177.686-41.8457 174.219-44.8242L108.74-99.8535Q103.418-104.346 96.9727-104.346Q90.5273-104.346 85.2539-99.8535L19.6289-44.7754Q16.0645-41.748 16.0645-37.7441ZM133.936-73.1445L156.348-54.3945L156.348-87.8418Q156.348-90.1367 155.029-91.4551Q153.711-92.7734 151.514-92.7734L138.867-92.7734Q136.67-92.7734 135.303-91.4551Q133.936-90.1367 133.936-87.8418Z"/>
  </g>
  <g id="Bold-L" transform="matrix(1 0 0 1 2245.59 1556)">
   <path d="M111.182 20.9961L77.5879 20.9961L77.5879-18.3594Q77.5879-20.5566 78.9307-21.875Q80.2734-23.1934 82.4707-23.1934L106.348-23.1934Q108.545-23.1934 109.863-21.875Q111.182-20.5566 111.182-18.3594ZM36.9629 18.9941Q36.9629 25.9277 41.1865 29.9561Q45.4102 33.9844 52.6367 33.9844L136.182 33.9844Q143.457 33.9844 147.681 29.9561Q151.904 25.9277 151.904 18.9941L151.904-27.6855L98.4863-72.5098Q96.5332-74.1699 94.4092-74.1455Q92.2852-74.1211 90.4297-72.5098L36.9629-27.7344ZM16.0645-38.3789Q16.0645-35.4004 18.0664-33.3984Q20.0684-31.3965 23.4863-31.3965Q25.0488-31.3965 26.5137-32.1045Q27.9785-32.8125 29.248-33.9355L91.2109-85.8398Q92.7734-87.207 94.458-87.207Q96.1426-87.207 97.7539-85.8398L159.57-33.9355Q160.889-32.8125 162.354-32.1045Q163.818-31.3965 165.381-31.3965Q168.604-31.3965 170.654-33.2764Q172.705-35.1562 172.705-38.2812Q172.705-41.7969 169.824-44.2383L104.639-99.0234Q100-102.93 94.4824-102.93Q88.9648-102.93 84.375-99.0234L18.9941-44.1895Q16.0645-41.6992 16.0645-38.3789ZM132.715-70.6055L152.344-54.1504L152.344-86.084Q152.344-88.1836 151.099-89.4287Q149.854-90.6738 147.754-90.6738L137.354-90.6738Q135.303-90.6738 134.009-89.4287Q132.715-88.1836 132.715-86.084Z"/>
  </g>
  <g id="Semibold-L" transform="matrix(1 0 0 1 1950.62 1556)">
   <path d="M109.18 21.2891L76.123 21.2891L76.123-19.043Q76.123-21.1914 77.417-22.4854Q78.7109-23.7793 80.8594-23.7793L104.443-23.7793Q106.592-23.7793 107.886-22.4854Q109.18-21.1914 109.18-19.043ZM36.1328 18.4082Q36.1328 25.0977 40.1123 28.9062Q44.0918 32.7148 50.9766 32.7148L134.424 32.7148Q141.309 32.7148 145.288 28.9062Q149.268 25.0977 149.268 18.4082L149.268-30.3711L96.6797-74.5117Q94.7754-76.1719 92.6758-76.1475Q90.5762-76.123 88.7207-74.5117L36.1328-30.4688ZM16.0645-38.7695Q16.0645-36.2793 17.7734-34.5215Q19.4824-32.7637 22.4609-32.7637Q23.877-32.7637 25.1221-33.4229Q26.3672-34.082 27.4902-35.0098L89.7949-87.2559Q91.2109-88.4766 92.7246-88.4766Q94.2383-88.4766 95.7031-87.2559L157.861-35.0098Q158.984-34.082 160.254-33.4229Q161.523-32.7637 162.939-32.7637Q165.674-32.7637 167.456-34.375Q169.238-35.9863 169.238-38.6719Q169.238-41.6992 166.797-43.7988L101.758-98.4375Q97.6562-101.953 92.7734-101.953Q87.8906-101.953 83.7402-98.4375L18.5547-43.7988Q16.0645-41.6504 16.0645-38.7695ZM131.836-68.8477L149.561-53.9551L149.561-84.8633Q149.561-86.8652 148.364-88.0615Q147.168-89.2578 145.166-89.2578L136.328-89.2578Q134.326-89.2578 133.081-88.0615Q131.836-86.8652 131.836-84.8633Z"/>
  </g>
  <g id="Medium-L" transform="matrix(1 0 0 1 1655.2 1556)">
   <path d="M107.666 21.5332L75 21.5332L75-19.5801Q75-21.7285 76.2695-22.9736Q77.5391-24.2188 79.6387-24.2188L103.076-24.2188Q105.176-24.2188 106.421-22.9736Q107.666-21.7285 107.666-19.5801ZM35.498 17.9199Q35.498 24.4141 39.2822 28.0762Q43.0664 31.7383 49.707 31.7383L133.105 31.7383Q139.746 31.7383 143.53 28.0762Q147.314 24.4141 147.314 17.9199L147.314-32.4219L95.3125-76.0254Q93.4082-77.6855 91.3574-77.6611Q89.3066-77.6367 87.5-76.0254L35.498-32.5195ZM16.0645-39.1113Q16.0645-36.9629 17.5537-35.4004Q19.043-33.8379 21.6797-33.8379Q22.998-33.8379 24.0967-34.4238Q25.1953-35.0098 26.1719-35.8887L88.7207-88.3301Q89.9902-89.4043 91.4062-89.4287Q92.8223-89.4531 94.1406-88.3301L156.592-35.8887Q157.568-35.0098 158.691-34.4238Q159.814-33.8379 161.084-33.8379Q163.477-33.8379 165.063-35.2295Q166.65-36.6211 166.65-38.9648Q166.65-41.6504 164.502-43.457L99.6094-98.0469Q95.8984-101.221 91.4795-101.221Q87.0605-101.221 83.252-98.0469L18.2617-43.457Q16.0645-41.6504 16.0645-39.1113ZM131.201-67.4805L147.461-53.8086L147.461-83.9355Q147.461-85.8398 146.289-86.9873Q145.117-88.1348 143.213-88.1348L135.498-88.1348Q133.594-88.1348 132.397-86.9873Q131.201-85.8398 131.201-83.9355Z"/>
  </g>
  <g id="Regular-L" transform="matrix(1 0 0 1 1360.2 1556)">
   <path d="M105.713 21.875L73.5352 21.875L73.5352-20.3125Q73.5352-22.3633 74.7803-23.584Q76.0254-24.8047 78.0762-24.8047L101.221-24.8047Q103.271-24.8047 104.492-23.584Q105.713-22.3633 105.713-20.3125ZM34.7168 17.334Q34.7168 23.584 38.2568 27.0508Q41.7969 30.5176 48.0957 30.5176L131.348 30.5176Q137.646 30.5176 141.187 27.0508Q144.727 23.584 144.727 17.334L144.727-35.1074L93.5547-78.0273Q91.6504-79.6387 89.6484-79.6143Q87.6465-79.5898 85.8398-78.0273L34.7168-35.2051ZM16.0645-39.502Q16.0645-37.8418 17.2852-36.5234Q18.5059-35.2051 20.7031-35.2051Q21.8262-35.2051 22.7295-35.7422Q23.6328-36.2793 24.4629-36.9629L87.3535-89.6973Q88.4766-90.6738 89.7217-90.6982Q90.9668-90.7227 92.1387-89.6973L154.883-36.9629Q155.713-36.2793 156.641-35.7422Q157.568-35.2051 158.691-35.2051Q160.596-35.2051 161.914-36.3281Q163.232-37.4512 163.232-39.3555Q163.232-41.6016 161.523-43.0664L96.8262-97.4609Q93.5547-100.293 89.7705-100.293Q85.9863-100.293 82.666-97.4609L17.8223-43.0664Q16.0645-41.6016 16.0645-39.502ZM130.371-65.7715L144.727-53.6621L144.727-82.7148Q144.727-84.5215 143.604-85.6201Q142.48-86.7188 140.674-86.7188L134.473-86.7188Q132.666-86.7188 131.519-85.6201Q130.371-84.5215 130.371-82.7148Z"/>
  </g>
  <g id="Light-L" transform="matrix(1 0 0 1 1065.68 1556)">
   <path d="M103.32 22.8027L71.582 22.8027L71.582-20.1172Q71.582-22.0215 72.7051-23.1201Q73.8281-24.2188 75.6836-24.2188L99.2188-24.2188Q101.074-24.2188 102.197-23.1201Q103.32-22.0215 103.32-20.1172ZM33.3496 17.2363Q33.3496 22.998 36.5967 26.2207Q39.8438 29.4434 45.6543 29.4434L129.443 29.4434Q135.254 29.4434 138.525 26.2207Q141.797 22.998 141.797 17.2363L141.797-38.7207L91.4551-80.957Q89.4531-82.6172 87.4756-82.5928Q85.498-82.5684 83.5938-80.957L33.3496-38.8184ZM16.0645-40.4785Q16.0645-39.209 16.9922-38.2324Q17.9199-37.2559 19.5801-37.2559Q20.4102-37.2559 21.0693-37.6221Q21.7285-37.9883 22.3633-38.5254L84.9609-91.0156Q86.1816-92.0898 87.5-92.1387Q88.8184-92.1875 90.1855-91.0156L152.588-38.5254Q153.223-37.9883 153.882-37.6221Q154.541-37.2559 155.371-37.2559Q156.836-37.2559 157.837-38.1104Q158.838-38.9648 158.838-40.3809Q158.838-42.0898 157.422-43.3105L93.9453-96.7285Q90.9668-99.3164 87.5977-99.3164Q84.2285-99.3164 81.2012-96.7285L17.4805-43.3105Q16.0645-42.0898 16.0645-40.4785ZM129.492-63.8184L141.797-53.4668L141.797-82.373Q141.797-83.8867 140.845-84.79Q139.893-85.6934 138.428-85.6934L132.91-85.6934Q131.396-85.6934 130.444-84.79Q129.492-83.8867 129.492-82.373Z"/>
  </g>
  <g id="Thin-L" transform="matrix(1 0 0 1 771.876 1556)">
   <path d="M100.146 24.0723L68.9453 24.0723L68.9453-19.873Q68.9453-21.5332 69.9463-22.5098Q70.9473-23.4863 72.5586-23.4863L96.5332-23.4863Q98.1934-23.4863 99.1699-22.5098Q100.146-21.5332 100.146-19.873ZM31.4941 17.041Q31.4941 22.2168 34.3994 25.0977Q37.3047 27.9785 42.4805 27.9785L126.904 27.9785Q132.08 27.9785 134.985 25.0977Q137.891 22.2168 137.891 17.041L137.891-43.457L88.7207-84.8145Q86.5723-86.6211 84.5947-86.5967Q82.6172-86.5723 80.5664-84.8145L31.4941-43.6523ZM16.0645-41.748Q16.0645-41.0156 16.6016-40.4785Q17.1387-39.9414 18.0664-39.9414Q18.6035-39.9414 18.9209-40.1123Q19.2383-40.2832 19.6289-40.5762L81.7871-92.7734Q83.1543-93.9941 84.5703-94.0918Q85.9863-94.1895 87.5977-92.7734L149.512-40.5762Q149.854-40.2832 150.195-40.1123Q150.537-39.9414 151.025-39.9414Q151.904-39.9414 152.466-40.4541Q153.027-40.9668 153.027-41.748Q153.027-42.7734 152.051-43.6523L90.1855-95.752Q87.5977-97.998 84.7412-97.998Q81.8848-97.998 79.1992-95.752L17.041-43.6523Q16.0645-42.7734 16.0645-41.748ZM128.32-61.2793L137.891-53.2227L137.891-81.8848Q137.891-83.0078 137.183-83.6914Q136.475-84.375 135.4-84.375L130.811-84.375Q129.736-84.375 129.028-83.6914Q128.32-83.0078 128.32-81.8848Z"/>
  </g>
  <g id="Ultralight-L" transform="matrix(1 0 0 1 476.654 1556)">
   <path d="M98.4863 24.707L67.627 24.707L67.627-19.7754Q67.627-21.2891 68.5303-22.1924Q69.4336-23.0957 70.9473-23.0957L95.166-23.0957Q96.6797-23.0957 97.583-22.1924Q98.4863-21.2891 98.4863-19.7754ZM30.5664 16.9922Q30.5664 21.8262 33.2764 24.5361Q35.9863 27.2461 40.8203 27.2461L125.635 27.2461Q130.469 27.2461 133.203 24.5361Q135.938 21.8262 135.938 16.9922L135.938-45.8984L87.3047-86.7676Q85.0586-88.623 83.1055-88.5986Q81.1523-88.5742 79.0527-86.7676L30.5664-46.0938ZM16.0645-42.4316Q16.0645-41.9434 16.4062-41.6504Q16.748-41.3574 17.2852-41.3574Q17.627-41.3574 17.7979-41.4062Q17.9688-41.4551 18.2129-41.6504L80.1758-93.7012Q81.6406-94.9219 83.0811-95.0439Q84.5215-95.166 86.2793-93.7012L147.949-41.6504Q148.193-41.4551 148.34-41.4062Q148.486-41.3574 148.779-41.3574Q149.365-41.3574 149.707-41.6748Q150.049-41.9922 150.049-42.4316Q150.049-43.1152 149.268-43.7988L88.2324-95.2637Q85.8398-97.3633 83.2764-97.3633Q80.7129-97.3633 78.2227-95.2637L16.8457-43.7988Q16.0645-43.1152 16.0645-42.4316ZM127.734-59.9609L135.938-53.0762L135.938-81.6406Q135.938-82.5684 135.327-83.1299Q134.717-83.6914 133.887-83.6914L129.736-83.6914Q128.906-83.6914 128.32-83.1299Q127.734-82.5684 127.734-81.6406Z"/>
  </g>
  <g id="Black-M" transform="matrix(1 0 0 1 2855.4 1126)">
   <path d="M91.748 7.56836L64.2578 7.56836L64.2578-19.7754Q64.2578-21.582 65.3564-22.6562Q66.4551-23.7305 68.3105-23.7305L87.7441-23.7305Q89.5508-23.7305 90.6494-22.6562Q91.748-21.582 91.748-19.7754ZM30.7617 8.69141Q30.7617 14.7461 34.7656 18.4082Q38.7695 22.0703 45.3613 22.0703L110.596 22.0703Q117.188 22.0703 121.167 18.4082Q125.146 14.7461 125.146 8.69141L125.146-21.8262L81.3965-58.6426Q78.0273-61.4746 74.6582-58.6426L30.7617-21.8262ZM12.4512-36.6211Q12.4512-32.959 14.7949-30.7129Q17.1387-28.4668 21.0449-28.4668Q22.7051-28.4668 24.4141-29.1748Q26.123-29.8828 27.5879-31.1523L74.3652-70.3613Q76.1719-71.875 78.0518-71.875Q79.9316-71.875 81.7383-70.3613L128.369-31.1523Q129.883-29.8828 131.592-29.1748Q133.301-28.4668 134.961-28.4668Q138.818-28.4668 141.187-30.6885Q143.555-32.9102 143.555-36.6211Q143.555-40.6738 140.039-43.6035L89.2578-86.2793Q84.2285-90.4785 78.0518-90.4785Q71.875-90.4785 66.8457-86.2793L15.9668-43.5547Q12.4512-40.5273 12.4512-36.6211ZM105.273-67.6758L126.074-50.3418L126.074-78.5156Q126.074-80.3223 125-81.4209Q123.926-82.5195 122.07-82.5195L109.326-82.5195Q107.52-82.5195 106.396-81.4209Q105.273-80.3223 105.273-78.5156Z"/>
  </g>
  <g id="Heavy-M" transform="matrix(1 0 0 1 2560.39 1126)">
   <path d="M89.7461 7.76367L62.793 7.76367L62.793-20.7031Q62.793-22.5098 63.8916-23.5596Q64.9902-24.6094 66.7969-24.6094L85.8398-24.6094Q87.5977-24.6094 88.6719-23.5596Q89.7461-22.5098 89.7461-20.7031ZM30.0293 7.95898Q30.0293 13.7695 33.7891 17.2363Q37.5488 20.7031 43.7988 20.7031L108.789 20.7031Q115.039 20.7031 118.75 17.2363Q122.461 13.7695 122.461 7.95898L122.461-24.5117L79.5898-60.5469Q76.3184-63.3301 73.0469-60.5469L30.0293-24.5117ZM12.4512-36.9629Q12.4512-33.7891 14.502-31.7871Q16.5527-29.7852 20.0195-29.7852Q21.5332-29.7852 23.0225-30.4443Q24.5117-31.1035 25.8301-32.2266L73.0957-71.8262Q74.707-73.1934 76.3428-73.1934Q77.9785-73.1934 79.541-71.8262L126.709-32.2266Q128.027-31.1035 129.541-30.4443Q131.055-29.7852 132.568-29.7852Q135.938-29.7852 138.037-31.7139Q140.137-33.6426 140.137-36.9141Q140.137-40.4785 137.061-43.0176L86.2793-85.6934Q81.7871-89.4531 76.3184-89.4531Q70.8496-89.4531 66.4062-85.6934L15.5273-42.9688Q12.4512-40.3809 12.4512-36.9629ZM104.395-65.8691L123.193-50.1465L123.193-77.0508Q123.193-78.8086 122.144-79.8584Q121.094-80.9082 119.287-80.9082L108.301-80.9082Q106.592-80.9082 105.493-79.8584Q104.395-78.8086 104.395-77.0508Z"/>
  </g>
  <g id="Bold-M" transform="matrix(1 0 0 1 2265.61 1126)">
   <path d="M87.5488 8.05664L61.1816 8.05664L61.1816-21.7773Q61.1816-23.5352 62.2559-24.585Q63.3301-25.6348 65.0879-25.6348L83.6914-25.6348Q85.4492-25.6348 86.499-24.585Q87.5488-23.5352 87.5488-21.7773ZM29.248 7.17773Q29.248 12.7441 32.6904 15.9912Q36.1328 19.2383 42.041 19.2383L106.738 19.2383Q112.598 19.2383 116.04 15.9912Q119.482 12.7441 119.482 7.17773L119.482-27.4902L77.5391-62.6953Q74.4141-65.3809 71.2402-62.6953L29.248-27.4902ZM12.4512-37.3047Q12.4512-34.7168 14.1846-33.0078Q15.918-31.2988 18.8477-31.2988Q20.2148-31.2988 21.4844-31.8848Q22.7539-32.4707 23.877-33.3984L71.7285-73.5352Q73.0469-74.6582 74.4385-74.6582Q75.8301-74.6582 77.1484-73.5352L124.902-33.3984Q126.025-32.4707 127.295-31.8848Q128.564-31.2988 129.932-31.2988Q132.715-31.2988 134.497-32.9102Q136.279-34.5215 136.279-37.2559Q136.279-40.2832 133.789-42.3828L82.959-85.1074Q79.1016-88.3301 74.4385-88.3301Q69.7754-88.3301 65.8691-85.1074L14.9902-42.3828Q12.4512-40.2344 12.4512-37.3047ZM103.418-63.8672L119.971-50L119.971-75.3906Q119.971-77.0996 118.945-78.125Q117.92-79.1504 116.211-79.1504L107.227-79.1504Q105.518-79.1504 104.468-78.125Q103.418-77.0996 103.418-75.3906Z"/>
  </g>
  <g id="Semibold-M" transform="matrix(1 0 0 1 1970.22 1126)">
   <path d="M85.9863 8.20312L60.0586 8.20312L60.0586-22.5098Q60.0586-24.2676 61.1328-25.293Q62.207-26.3184 63.916-26.3184L82.1777-26.3184Q83.9355-26.3184 84.9609-25.293Q85.9863-24.2676 85.9863-22.5098ZM28.6621 6.5918Q28.6621 11.9629 31.9092 15.0635Q35.1562 18.1641 40.8203 18.1641L105.322 18.1641Q110.938 18.1641 114.185 15.0635Q117.432 11.9629 117.432 6.5918L117.432-29.541L76.123-64.1602Q73.0469-66.748 70.0195-64.1602L28.6621-29.541ZM12.4512-37.5488Q12.4512-35.3516 13.9648-33.8135Q15.4785-32.2754 18.0664-32.2754Q19.2871-32.2754 20.4102-32.8369Q21.5332-33.3984 22.5098-34.2285L70.752-74.6582Q71.875-75.6348 73.0957-75.6348Q74.3164-75.6348 75.4395-74.6582L123.584-34.2285Q124.609-33.3984 125.732-32.8369Q126.855-32.2754 128.076-32.2754Q130.469-32.2754 132.056-33.667Q133.643-35.0586 133.643-37.4512Q133.643-40.1367 131.494-41.9434L80.6641-84.668Q77.1973-87.5488 73.0957-87.5488Q68.9941-87.5488 65.5273-84.668L14.6484-41.9434Q12.4512-40.0879 12.4512-37.5488ZM102.734-62.4512L117.725-49.8535L117.725-74.2188Q117.725-75.8789 116.724-76.8799Q115.723-77.8809 114.062-77.8809L106.445-77.8809Q104.785-77.8809 103.76-76.8799Q102.734-75.8789 102.734-74.2188Z"/>
  </g>
  <g id="Medium-M" transform="matrix(1 0 0 1 1674.51 1126)">
   <path d="M84.8145 8.34961L59.2285 8.34961L59.2285-23.0469Q59.2285-24.8047 60.2783-25.8057Q61.3281-26.8066 63.0371-26.8066L81.0547-26.8066Q82.7637-26.8066 83.7891-25.8057Q84.8145-24.8047 84.8145-23.0469ZM28.2227 6.15234Q28.2227 11.4258 31.3232 14.4043Q34.4238 17.3828 39.8926 17.3828L104.248 17.3828Q109.668 17.3828 112.769 14.4043Q115.869 11.4258 115.869 6.15234L115.869-31.0547L75.0488-65.2832Q72.0703-67.8223 69.043-65.2832L28.2227-31.0547ZM12.4512-37.7441Q12.4512-35.8398 13.7939-34.4482Q15.1367-33.0566 17.4316-33.0566Q18.6035-33.0566 19.6045-33.5938Q20.6055-34.1309 21.4844-34.8145L70.0195-75.5371Q70.9961-76.416 72.0703-76.416Q73.1445-76.416 74.1699-75.5371L122.656-34.8145Q123.535-34.1309 124.536-33.5938Q125.537-33.0566 126.66-33.0566Q128.76-33.0566 130.2-34.2773Q131.641-35.498 131.641-37.6465Q131.641-40.0391 129.736-41.6016L78.9062-84.3262Q75.7812-86.9629 72.0947-86.9629Q68.4082-86.9629 65.2344-84.3262L14.3555-41.6016Q12.4512-39.9902 12.4512-37.7441ZM102.246-61.377L116.016-49.7559L116.016-73.3398Q116.016-75 115.039-75.9766Q114.062-76.9531 112.402-76.9531L105.859-76.9531Q104.248-76.9531 103.247-75.9766Q102.246-75 102.246-73.3398Z"/>
  </g>
  <g id="Regular-M" transform="matrix(1 0 0 1 1379.12 1126)">
   <path d="M83.3008 8.49609L58.1055 8.49609L58.1055-23.7793Q58.1055-25.4883 59.1553-26.4893Q60.2051-27.4902 61.8652-27.4902L79.5898-27.4902Q81.2988-27.4902 82.2998-26.4893Q83.3008-25.4883 83.3008-23.7793ZM27.6855 5.61523Q27.6855 10.6934 30.5908 13.5254Q33.4961 16.3574 38.6719 16.3574L102.881 16.3574Q108.008 16.3574 110.913 13.5254Q113.818 10.6934 113.818 5.61523L113.818-33.1055L73.6816-66.748Q70.752-69.2383 67.8223-66.748L27.6855-33.1055ZM12.4512-37.9883Q12.4512-36.4746 13.5742-35.2783Q14.6973-34.082 16.6504-34.082Q17.6758-34.082 18.5303-34.5703Q19.3848-35.0586 20.166-35.6445L69.043-76.6602Q69.873-77.3926 70.7764-77.3926Q71.6797-77.3926 72.5098-76.6602L121.387-35.6445Q122.119-35.0586 122.974-34.5703Q123.828-34.082 124.854-34.082Q126.562-34.082 127.783-35.083Q129.004-36.084 129.004-37.8418Q129.004-39.8926 127.49-41.1621L76.6602-83.8867Q73.9258-86.1816 70.7764-86.1816Q67.627-86.1816 64.8926-83.8867L14.0137-41.1621Q12.4512-39.8926 12.4512-37.9883ZM101.562-60.0098L113.818-49.6094L113.818-72.2168Q113.818-73.8281 112.866-74.7803Q111.914-75.7324 110.303-75.7324L105.078-75.7324Q103.516-75.7324 102.539-74.7803Q101.562-73.8281 101.562-72.2168Z"/>
  </g>
  <g id="Light-M" transform="matrix(1 0 0 1 1084.38 1126)">
   <path d="M81.1523 9.32617L56.3477 9.32617L56.3477-23.6328Q56.3477-25.1465 57.2754-26.0498Q58.2031-26.9531 59.7168-26.9531L77.7832-26.9531Q79.3457-26.9531 80.249-26.0498Q81.1523-25.1465 81.1523-23.6328ZM26.4648 5.51758Q26.4648 10.1562 29.1016 12.7686Q31.7383 15.3809 36.4746 15.3809L101.172 15.3809Q105.859 15.3809 108.521 12.7686Q111.182 10.1562 111.182 5.51758L111.182-36.3281L71.8262-69.3848Q68.7988-71.9238 65.7715-69.3848L26.4648-36.377ZM12.4512-38.8672Q12.4512-37.6953 13.3057-36.792Q14.1602-35.8887 15.6738-35.8887Q16.4551-35.8887 17.0654-36.2549Q17.6758-36.6211 18.3105-37.0605L66.8945-77.832Q67.8223-78.6621 68.7988-78.6865Q69.7754-78.7109 70.752-77.832L119.287-37.0605Q119.873-36.6211 120.508-36.2549Q121.143-35.8887 121.924-35.8887Q123.193-35.8887 124.121-36.6699Q125.049-37.4512 125.049-38.7695Q125.049-40.332 123.828-41.3574L74.0723-83.2031Q71.6309-85.3027 68.8477-85.3027Q66.0645-85.3027 63.5742-83.2031L13.7207-41.3574Q12.4512-40.332 12.4512-38.8672ZM100.781-58.252L111.182-49.4141L111.182-71.875Q111.182-73.2422 110.376-74.0234Q109.57-74.8047 108.252-74.8047L103.662-74.8047Q102.393-74.8047 101.587-74.0234Q100.781-73.2422 100.781-71.875Z"/>
  </g>
  <g id="Thin-M" transform="matrix(1 0 0 1 790.26 1126)">
   <path d="M78.3203 10.4492L54.0039 10.4492L54.0039-23.3887Q54.0039-24.707 54.8096-25.5127Q55.6152-26.3184 56.8848-26.3184L75.3906-26.3184Q76.709-26.3184 77.5146-25.5127Q78.3203-24.707 78.3203-23.3887ZM24.8047 5.32227Q24.8047 9.47266 27.124 11.7676Q29.4434 14.0625 33.5938 14.0625L98.9258 14.0625Q103.027 14.0625 105.371 11.7676Q107.715 9.47266 107.715 5.32227L107.715-40.5762L69.3359-72.8516Q66.2109-75.4395 63.0859-72.8516L24.8047-40.7227ZM12.4512-40.0391Q12.4512-39.3066 12.9639-38.7939Q13.4766-38.2812 14.3066-38.2812Q14.7949-38.2812 15.1123-38.4521Q15.4297-38.623 15.8203-38.916L64.0625-79.4434Q65.0879-80.3223 66.1621-80.3955Q67.2363-80.4688 68.4082-79.4434L116.553-38.916Q116.895-38.623 117.212-38.4521Q117.529-38.2812 118.018-38.2812Q118.799-38.2812 119.336-38.7695Q119.873-39.2578 119.873-39.9902Q119.873-40.918 118.994-41.6504L70.7031-82.3242Q68.6035-84.1797 66.2842-84.1797Q63.9648-84.1797 61.8164-82.3242L13.3301-41.6504Q12.4512-40.918 12.4512-40.0391ZM99.707-55.957L107.715-49.1699L107.715-71.4844Q107.715-72.4609 107.104-73.0225Q106.494-73.584 105.615-73.584L101.807-73.584Q100.928-73.584 100.317-73.0225Q99.707-72.4609 99.707-71.4844Z"/>
  </g>
  <g id="Ultralight-M" transform="matrix(1 0 0 1 494.892 1126)">
   <path d="M76.8555 11.0352L52.7832 11.0352L52.7832-23.291Q52.7832-24.5117 53.5156-25.2197Q54.248-25.9277 55.4688-25.9277L74.1699-25.9277Q75.3906-25.9277 76.123-25.2197Q76.8555-24.5117 76.8555-23.291ZM23.9746 5.27344Q23.9746 9.08203 26.123 11.2549Q28.2715 13.4277 32.1289 13.4277L97.7539 13.4277Q101.611 13.4277 103.76 11.2549Q105.908 9.08203 105.908 5.27344L105.908-42.7734L68.0664-74.6094Q64.8926-77.2461 61.6699-74.6094L23.9746-42.9199ZM12.4512-40.625Q12.4512-40.1367 12.7686-39.8438Q13.0859-39.5508 13.6719-39.5508Q13.9648-39.5508 14.1357-39.624Q14.3066-39.6973 14.5508-39.8438L62.6465-80.2246Q63.7207-81.2012 64.8438-81.2988Q65.9668-81.3965 67.2363-80.2246L115.137-39.8438Q115.332-39.6973 115.527-39.624Q115.723-39.5508 116.016-39.5508Q116.504-39.5508 116.846-39.8682Q117.188-40.1855 117.188-40.625Q117.188-41.2109 116.504-41.7969L68.9453-81.8848Q67.0898-83.5938 64.9902-83.5938Q62.8906-83.5938 60.9375-81.8848L13.0859-41.7969Q12.4512-41.2109 12.4512-40.625ZM99.1699-54.7852L105.908-49.0723L105.908-71.2402Q105.908-72.0703 105.42-72.5098Q104.932-72.9492 104.199-72.9492L100.879-72.9492Q100.146-72.9492 99.6582-72.5098Q99.1699-72.0703 99.1699-71.2402Z"/>
  </g>
  <g id="Black-S" transform="matrix(1 0 0 1 2871.88 696)">
   <path d="M72.3633-1.70898L50.6836-1.70898L50.6836-22.8027Q50.6836-24.2188 51.5625-25.0732Q52.4414-25.9277 53.8574-25.9277L69.2383-25.9277Q72.3633-25.9277 72.3633-22.8027ZM24.2676-0.585938Q24.2676 4.15039 27.4658 7.08008Q30.6641 10.0098 35.8887 10.0098L87.1094 10.0098Q92.334 10.0098 95.5322 7.08008Q98.7305 4.15039 98.7305-0.585938L98.7305-24.1211L64.209-53.125Q62.9883-54.1992 61.5723-54.1992Q60.1562-54.1992 58.8867-53.125L24.2676-24.1211ZM9.76562-36.2793Q9.76562-33.3008 11.6943-31.4697Q13.623-29.6387 16.748-29.6387Q18.0664-29.6387 19.458-30.2002Q20.8496-30.7617 22.0703-31.7871L58.5449-62.3535Q61.5234-64.8926 64.5996-62.3535L100.977-31.7871Q102.197-30.7617 103.589-30.2002Q104.98-29.6387 106.299-29.6387Q109.473-29.6387 111.377-31.4697Q113.281-33.3008 113.281-36.2793Q113.281-39.5996 110.4-41.9922L70.7031-75.3418Q66.6016-78.8086 61.5723-78.8086Q56.543-78.8086 52.4414-75.3418L12.6465-41.9434Q9.76562-39.4531 9.76562-36.2793ZM82.7148-61.084L99.5117-47.1191L99.5117-69.5801Q99.5117-72.7051 96.3867-72.7051L85.8887-72.7051Q84.4727-72.7051 83.5938-71.8506Q82.7148-70.9961 82.7148-69.5801Z"/>
  </g>
  <g id="Heavy-S" transform="matrix(1 0 0 1 2576.39 696)">
   <path d="M70.9473-1.61133L49.6582-1.61133L49.6582-23.6328Q49.6582-25.0488 50.5371-25.9033Q51.416-26.7578 52.832-26.7578L67.8223-26.7578Q70.9473-26.7578 70.9473-23.6328ZM23.8281-1.2207Q23.8281 3.41797 26.8311 6.20117Q29.834 8.98438 34.8145 8.98438L85.791 8.98438Q90.7715 8.98438 93.7744 6.20117Q96.7773 3.41797 96.7773-1.2207L96.7773-25.9766L62.8906-54.4434Q61.7188-55.4688 60.3516-55.4688Q58.9844-55.4688 57.7637-54.4434L23.8281-25.9766ZM9.76562-36.4258Q9.76562-33.8379 11.4746-32.1777Q13.1836-30.5176 16.0156-30.5176Q17.2363-30.5176 18.4814-31.0547Q19.7266-31.5918 20.8008-32.5195L57.7148-63.4766Q60.3027-65.6738 62.9395-63.4766L99.8047-32.5195Q100.928-31.5918 102.173-31.0547Q103.418-30.5176 104.639-30.5176Q107.422-30.5176 109.131-32.1289Q110.84-33.7402 110.84-36.4258Q110.84-39.4043 108.35-41.4551L68.5059-74.9512Q64.7949-78.0273 60.3516-78.0273Q55.9082-78.0273 52.2461-74.9512L12.3047-41.4551Q9.76562-39.2578 9.76562-36.4258ZM82.0801-59.7656L97.3633-46.9727L97.3633-68.3594Q97.3633-71.4355 94.2871-71.4355L85.2051-71.4355Q83.7891-71.4355 82.9346-70.6055Q82.0801-69.7754 82.0801-68.3594Z"/>
  </g>
  <g id="Bold-S" transform="matrix(1 0 0 1 2281.02 696)">
   <path d="M69.3359-1.5625L48.5352-1.5625L48.5352-24.5605Q48.5352-25.9766 49.4141-26.8311Q50.293-27.6855 51.709-27.6855L66.2598-27.6855Q69.3359-27.6855 69.3359-24.5605ZM23.291-1.9043Q23.291 2.58789 26.0986 5.22461Q28.9062 7.86133 33.6426 7.86133L84.2773 7.86133Q89.0137 7.86133 91.8213 5.22461Q94.6289 2.58789 94.6289-1.9043L94.6289-28.0762L61.4258-55.9082Q60.3027-56.8848 58.9844-56.8848Q57.666-56.8848 56.543-55.9082L23.291-28.0762ZM9.76562-36.6211Q9.76562-34.4727 11.2305-33.0078Q12.6953-31.543 15.1855-31.543Q16.3086-31.543 17.3828-32.0557Q18.457-32.5684 19.3848-33.3496L56.8359-64.7461Q58.9844-66.6016 61.1328-64.7461L98.5352-33.3496Q99.5117-32.5684 100.586-32.0557Q101.66-31.543 102.783-31.543Q105.127-31.543 106.641-32.9102Q108.154-34.2773 108.154-36.5723Q108.154-39.1602 106.055-40.918L66.0156-74.5117Q62.8418-77.1973 59.0088-77.1973Q55.1758-77.1973 52.002-74.5117L11.9141-40.8691Q9.76562-39.0625 9.76562-36.6211ZM81.3477-58.3008L95.0195-46.875L95.0195-66.9922Q95.0195-70.0684 91.9434-70.0684L84.4727-70.0684Q83.0566-70.0684 82.2021-69.2139Q81.3477-68.3594 81.3477-66.9922Z"/>
  </g>
  <g id="Semibold-S" transform="matrix(1 0 0 1 1985.26 696)">
   <path d="M68.2129-1.46484L47.7539-1.46484L47.7539-25.1953Q47.7539-26.6113 48.6084-27.4414Q49.4629-28.2715 50.8789-28.2715L65.1367-28.2715Q68.2129-28.2715 68.2129-25.1953ZM22.9492-2.34375Q22.9492 2.00195 25.5859 4.5166Q28.2227 7.03125 32.8125 7.03125L83.252 7.03125Q87.793 7.03125 90.4541 4.5166Q93.1152 2.00195 93.1152-2.34375L93.1152-29.4922L60.4004-56.8848Q59.3262-57.8613 58.0322-57.8369Q56.7383-57.8125 55.6641-56.8848L22.9492-29.4922ZM9.76562-36.7676Q9.76562-34.8633 11.0596-33.5449Q12.3535-32.2266 14.5996-32.2266Q15.625-32.2266 16.5771-32.7148Q17.5293-33.2031 18.4082-33.8867L56.2012-65.625Q58.0078-67.1875 59.8633-65.625L97.6562-33.8867Q98.4863-33.2031 99.4629-32.7148Q100.439-32.2266 101.514-32.2266Q103.564-32.2266 104.907-33.4229Q106.25-34.6191 106.25-36.6699Q106.25-38.9648 104.443-40.4785L64.3066-74.2188Q61.4258-76.6113 58.0322-76.6113Q54.6387-76.6113 51.8066-74.2188L11.6211-40.4785Q9.76562-38.916 9.76562-36.7676ZM80.8105-57.2754L93.3594-46.7285L93.3594-66.0156Q93.3594-69.0918 90.2832-69.0918L83.9355-69.0918Q82.5195-69.0918 81.665-68.2373Q80.8105-67.3828 80.8105-66.0156Z"/>
  </g>
  <g id="Medium-S" transform="matrix(1 0 0 1 1689.26 696)">
   <path d="M67.3828-1.41602L47.168-1.41602L47.168-25.6836Q47.168-27.0996 48.0225-27.9297Q48.877-28.7598 50.293-28.7598L64.3066-28.7598Q67.3828-28.7598 67.3828-25.6836ZM22.6562-2.68555Q22.6562 1.5625 25.1953 4.00391Q27.7344 6.44531 32.1777 6.44531L82.4707 6.44531Q86.8652 6.44531 89.4043 4.00391Q91.9434 1.5625 91.9434-2.68555L91.9434-30.5664L59.668-57.666Q58.5938-58.5938 57.3242-58.5693Q56.0547-58.5449 54.9805-57.666L22.6562-30.5664ZM9.76562-36.8164Q9.76562-35.2051 10.9375-33.9844Q12.1094-32.7637 14.1602-32.7637Q15.1367-32.7637 16.0156-33.2275Q16.8945-33.6914 17.6758-34.3262L55.7617-66.2598Q57.3242-67.6758 58.9355-66.2598L96.9727-34.3262Q97.7539-33.6914 98.6328-33.2275Q99.5117-32.7637 100.537-32.7637Q102.344-32.7637 103.589-33.8379Q104.834-34.9121 104.834-36.7188Q104.834-38.8184 103.223-40.1855L63.0371-73.9746Q60.4004-76.1719 57.3242-76.1719Q54.248-76.1719 51.6602-73.9746L11.4258-40.1855Q9.76562-38.8184 9.76562-36.8164ZM80.4199-56.4941L92.0898-46.6797L92.0898-65.2832Q92.0898-68.3594 89.0625-68.3594L83.5449-68.3594Q82.1289-68.3594 81.2744-67.5049Q80.4199-66.6504 80.4199-65.2832Z"/>
  </g>
  <g id="Regular-S" transform="matrix(1 0 0 1 1393.47 696)">
   <path d="M66.3086-1.36719L46.3867-1.36719L46.3867-26.3184Q46.3867-27.7344 47.2412-28.5645Q48.0957-29.3945 49.5117-29.3945L63.2324-29.3945Q66.3086-29.3945 66.3086-26.3184ZM22.3145-3.17383Q22.3145 0.976562 24.707 3.32031Q27.0996 5.66406 31.3477 5.66406L81.4453 5.66406Q85.6934 5.66406 88.0859 3.32031Q90.4785 0.976562 90.4785-3.17383L90.4785-31.9824L58.6426-58.6426Q57.6172-59.5703 56.3721-59.5459Q55.127-59.5215 54.1504-58.6426L22.3145-31.9824ZM9.76562-36.9629Q9.76562-35.5957 10.7666-34.5215Q11.7676-33.4473 13.5742-33.4473Q14.502-33.4473 15.2588-33.8867Q16.0156-34.3262 16.6992-34.8633L55.127-67.1387Q56.3965-68.2617 57.666-67.1387L96.0938-34.8633Q96.7773-34.3262 97.5586-33.8867Q98.3398-33.4473 99.2676-33.4473Q100.781-33.4473 101.88-34.3506Q102.979-35.2539 102.979-36.8164Q102.979-38.6719 101.66-39.7949L61.3281-73.6816Q59.0332-75.5859 56.3965-75.5859Q53.7598-75.5859 51.5137-73.6816L11.1328-39.7949Q9.76562-38.6719 9.76562-36.9629ZM79.9316-55.4688L90.4785-46.582L90.4785-64.3555Q90.4785-67.3828 87.4512-67.3828L83.0566-67.3828Q81.6406-67.3828 80.7861-66.5527Q79.9316-65.7227 79.9316-64.3555Z"/>
  </g>
  <g id="Light-S" transform="matrix(1 0 0 1 1098.49 696)">
   <path d="M64.4043-0.634766L44.8242-0.634766L44.8242-26.1719Q44.8242-27.4414 45.5811-28.1982Q46.3379-28.9551 47.6074-28.9551L61.6211-28.9551Q64.4043-28.9551 64.4043-26.1719ZM21.1914-3.27148Q21.1914 0.537109 23.3887 2.66113Q25.5859 4.78516 29.4434 4.78516L79.9316 4.78516Q83.7891 4.78516 85.9619 2.66113Q88.1348 0.537109 88.1348-3.27148L88.1348-34.8633L56.9824-60.9375Q55.8594-61.9629 54.6387-61.9385Q53.418-61.9141 52.3438-60.9375L21.1914-34.8633ZM9.76562-37.7441Q9.76562-36.6699 10.5225-35.8643Q11.2793-35.0586 12.6953-35.0586Q13.3789-35.0586 13.9404-35.376Q14.502-35.6934 15.0391-36.1328L53.2227-68.2129Q54.6875-69.4336 56.1035-68.2129L94.2383-36.1328Q94.7754-35.6934 95.3613-35.376Q95.9473-35.0586 96.6309-35.0586Q97.8516-35.0586 98.6816-35.7422Q99.5117-36.4258 99.5117-37.6465Q99.5117-39.0625 98.4375-39.9902L59.082-73.0957Q56.9824-74.8047 54.6631-74.8047Q52.3438-74.8047 50.3418-73.0957L10.8887-39.9902Q9.76562-39.0625 9.76562-37.7441ZM79.248-53.9551L88.1348-46.4355L88.1348-64.0625Q88.1348-66.6016 85.6445-66.6016L81.7871-66.6016Q80.6641-66.6016 79.9561-65.8936Q79.248-65.1855 79.248-64.0625Z"/>
  </g>
  <g id="Thin-S" transform="matrix(1 0 0 1 804.103 696)">
   <path d="M61.8652 0.341797L42.7734 0.341797L42.7734-26.0254Q42.7734-27.0508 43.4082-27.6855Q44.043-28.3203 45.1172-28.3203L59.5215-28.3203Q61.8652-28.3203 61.8652-26.0254ZM19.7266-3.41797Q19.7266-0.0976562 21.6309 1.78223Q23.5352 3.66211 26.9043 3.66211L77.9297 3.66211Q81.2988 3.66211 83.1787 1.78223Q85.0586-0.0976562 85.0586-3.41797L85.0586-38.623L54.834-64.0137Q53.5156-65.0879 52.3438-65.0635Q51.1719-65.0391 49.9512-64.0137L19.7266-38.7207ZM9.76562-38.7695Q9.76562-38.1348 10.2295-37.6465Q10.6934-37.1582 11.5234-37.1582Q11.9141-37.1582 12.2314-37.3535Q12.5488-37.5488 12.8906-37.793L50.7324-69.5801Q52.3926-71.0449 54.1016-69.5801L91.7969-37.793Q92.1387-37.5488 92.4561-37.3535Q92.7734-37.1582 93.1641-37.1582Q93.9453-37.1582 94.4092-37.5977Q94.873-38.0371 94.873-38.7207Q94.873-39.5996 94.1406-40.2344L56.0547-72.3145Q54.3457-73.7793 52.4414-73.7793Q50.5371-73.7793 48.7793-72.3145L10.5469-40.2344Q9.76562-39.5996 9.76562-38.7695ZM78.3203-51.9043L85.0586-46.2402L85.0586-63.7207Q85.0586-65.5273 83.252-65.5273L80.127-65.5273Q79.3457-65.5273 78.833-65.0391Q78.3203-64.5508 78.3203-63.7207Z"/>
  </g>
  <g id="Ultralight-S" transform="matrix(1 0 0 1 508.564 696)">
   <path d="M60.5957 0.878906L41.6992 0.878906L41.6992-25.9277Q41.6992-26.8555 42.2852-27.4414Q42.8711-28.0273 43.8477-28.0273L58.4473-28.0273Q60.5957-28.0273 60.5957-25.9277ZM18.9941-3.51562Q18.9941-0.390625 20.752 1.34277Q22.5098 3.07617 25.5859 3.07617L76.9043 3.07617Q80.0293 3.07617 81.7627 1.34277Q83.4961-0.390625 83.4961-3.51562L83.4961-40.5762L53.7109-65.5762Q52.3438-66.6992 51.1719-66.6748Q50-66.6504 48.6816-65.5762L18.9941-40.6738ZM9.76562-39.2578Q9.76562-38.8672 10.0586-38.5742Q10.3516-38.2812 10.8887-38.2812Q11.1816-38.2812 11.3525-38.3789Q11.5234-38.4766 11.7676-38.623L49.4629-70.3125Q51.2207-71.8262 53.0273-70.3125L90.5762-38.623Q90.7715-38.4766 90.9424-38.3789Q91.1133-38.2812 91.4062-38.2812Q91.9434-38.2812 92.2363-38.5498Q92.5293-38.8184 92.5293-39.2578Q92.5293-39.8438 91.9434-40.332L54.541-71.9238Q52.9297-73.291 51.2451-73.291Q49.5605-73.291 47.9492-71.9238L10.3516-40.332Q9.76562-39.8438 9.76562-39.2578ZM77.832-50.8789L83.4961-46.1426L83.4961-63.5254Q83.4961-64.9902 81.9824-64.9902L79.2969-64.9902Q78.7109-64.9902 78.2715-64.5752Q77.832-64.1602 77.832-63.5254Z"/>
  </g>
 </g>
</svg>
